<?xml version="1.0" standalone="no"?><!DOCTYPE svg PUBLIC "-//W3C//DTD SVG 1.1//EN" "http://www.w3.org/Graphics/SVG/1.1/DTD/svg11.dtd"><svg t="1595824487497" class="icon" viewBox="0 0 1024 1024" version="1.1" xmlns="http://www.w3.org/2000/svg" p-id="4059" xmlns:xlink="http://www.w3.org/1999/xlink" width="32" height="32"><defs><style type="text/css"></style></defs><path d="M512.084 135.226c-241.275 0-436.87 195.593-436.87 436.868 0 241.281 195.594 436.874 436.87 436.874 107.741 0 206.37-39.006 282.545-103.662-2.786-14.805-13.192-28.563-46.981-28.072-65.143 50.364-146.852 80.334-235.563 80.334-212.89 0-385.472-172.58-385.472-385.473 0-212.89 172.582-385.472 385.472-385.472 212.893 0 385.472 172.582 385.472 385.472 0 81.142-25.073 156.425-67.892 218.532 7.856 15.504 22.188 26.975 48.306 20.262 44.884-68.634 70.984-150.665 70.984-238.794 0-241.276-195.596-436.868-436.871-436.868z m64.247 179.887c-21.29 0-38.551 17.258-38.551 38.547 0 21.288 17.26 38.547 38.55 38.547s38.547-17.258 38.547-38.547c0-21.288-17.258-38.547-38.546-38.547zM460.689 777.681c0 14.194 11.505 25.7 25.697 25.7 4.376 0 8.495-1.095 12.101-3.026l90.692-22.674c14.194 0 25.7-11.507 25.7-25.696 0-14.194-11.505-25.7-25.7-25.7l-68.529 17.132 65.505-262.015a25.584 25.584 0 0 0 3.024-12.098c0-14.194-11.507-25.701-25.696-25.701a25.584 25.584 0 0 0-12.1 3.025l-90.693 22.676c-14.194 0-25.7 11.507-25.7 25.697 0 14.192 11.505 25.699 25.7 25.699l68.526-17.132-65.5 262.014a25.57 25.57 0 0 0-3.027 12.099z" p-id="4060"></path></svg>