<?xml version="1.0" standalone="no"?><!DOCTYPE svg PUBLIC "-//W3C//DTD SVG 1.1//EN" "http://www.w3.org/Graphics/SVG/1.1/DTD/svg11.dtd"><svg t="1595820152744" class="icon" viewBox="0 0 1024 1024" version="1.1" xmlns="http://www.w3.org/2000/svg" p-id="2194" xmlns:xlink="http://www.w3.org/1999/xlink" width="32" height="32"><defs><style type="text/css"></style></defs><path d="M0 0h1022.296v1022.296H0z" fill="#21A900" p-id="2195"></path><path d="M229.782 205.61h575.25v611.075h-48.666v-32.432H278.45v32.432h-48.668V205.61z m48.668 45.958v489.437h477.916V251.568H278.45z m21.378 159.782c63.07-46.849 112.617-97.296 148.664-151.365l43.244 18.923c-7.209 12.624-16.222 24.334-27.033 35.136H694.45v40.546c-34.237 41.446-72.97 75.693-116.218 102.717 48.648 19.822 103.606 32.434 164.874 37.834-3.608 9.015-9.02 21.628-16.222 37.847l-5.4 10.812c-75.693-14.412-138.76-34.233-189.21-59.47-55.857 28.837-129.74 53.161-221.635 72.98-3.61-12.612-10.822-27.924-21.621-45.946 70.27-10.814 135.139-28.833 194.61-54.059-34.246-25.225-62.17-49.557-83.793-72.981-21.622 23.422-44.148 43.245-67.572 59.458a38171.912 38171.912 0 0 1-32.434-32.432z m48.647 251.209l13.523-43.245c14.413 1.797 39.637 5.411 75.681 10.809 124.327 18.023 203.61 31.538 237.856 40.536l-16.222 48.66c-88.29-21.626-191.909-40.536-310.838-56.76z m67.58-83.793l13.514-45.947c7.2 1.801 18.912 3.6 35.136 5.401 82.891 14.423 138.751 24.333 167.585 29.737l-16.222 45.947c-68.472-14.416-135.142-26.126-200.012-35.138zM632.29 357.293H434.968c27.025 30.645 59.459 55.87 97.308 75.68 41.445-23.424 74.78-48.648 100.014-75.68z" fill="#F9F9F9" p-id="2196"></path></svg>